<?xml version="1.0" encoding="UTF-8"?>
<svg width="600px" height="429px" viewBox="0 0 600 429" version="1.1" xmlns="http://www.w3.org/2000/svg" xmlns:xlink="http://www.w3.org/1999/xlink">
    <!-- Generator: Sketch 47.1 (45422) - http://www.bohemiancoding.com/sketch -->
    <title>Hello_my_name_is_sticker</title>
    <desc>Created with Sketch.</desc>
    <defs></defs>
    <g id="Page-1" stroke="none" stroke-width="1" fill="none" fill-rule="evenodd">
        <g id="Hello_my_name_is_sticker">
            <rect id="rect2991" fill="#EF3D33" fill-rule="nonzero" x="0" y="0" width="600" height="428.66318" rx="29.901646"></rect>
            <g id="text3761" transform="translate(181.939758, 18.962130)" fill-rule="nonzero" fill="#FFFFFF">
                <polyline id="path3955" points="54.72119 74.79074 54.72119 0.79074 41.02119 0.79074 41.02119 30.89074 14.52119 30.89074 14.52119 0.79074 0.82119 0.79074 0.82119 74.79074 14.52119 74.79074 14.52119 43.69074 41.02119 43.69074 41.02119 74.79074 54.72119 74.79074"></polyline>
                <path d="M122.68994,46.29074 C122.68994,30.19076 110.18993,17.39074 93.98994,17.39074 C77.18996,17.39074 64.78994,30.59076 64.78994,47.19074 C64.78994,63.69072 77.48996,76.59074 94.08994,76.59074 C105.88993,76.59074 117.28995,68.59073 120.88994,57.29074 L106.88994,57.29074 C104.18994,62.19074 99.48994,64.39074 94.08994,64.39074 C88.58995,64.39074 83.58994,61.59074 80.58994,56.99074 C79.78994,55.79074 79.08994,54.49074 78.78994,52.99074 L121.88994,52.99074 C122.38994,50.79074 122.68994,48.49074 122.68994,46.29074 M109.08994,42.29074 L78.38994,42.29074 C80.28994,34.39075 85.98995,29.59074 94.08994,29.59074 C102.18993,29.59074 107.78994,34.29075 109.08994,42.29074" id="path3957"></path>
                <polyline id="path3959" points="144.45244 74.79074 144.45244 0.79074 131.15244 0.79074 131.15244 74.79074 144.45244 74.79074"></polyline>
                <polyline id="path3961" points="168.47588 74.79074 168.47588 0.79074 155.17588 0.79074 155.17588 74.79074 168.47588 74.79074"></polyline>
                <path d="M235.29932,46.89074 C235.29932,30.59076 222.2993,17.39074 205.89932,17.39074 C189.49933,17.39074 176.29932,30.79076 176.29932,47.09074 C176.29932,63.29072 189.69933,76.59074 205.89932,76.59074 C222.6993,76.59074 235.29932,63.69072 235.29932,46.89074 M221.99932,47.19074 C221.99932,56.29073 215.29931,64.39074 205.89932,64.39074 C196.29933,64.39074 189.59932,56.39073 189.59932,47.09074 C189.59932,38.09075 196.49933,29.59074 205.89932,29.59074 C215.29931,29.59074 221.99932,38.29075 221.99932,47.19074" id="path3963"></path>
            </g>
            <g id="text3769" transform="translate(175.939758, 104.962130)" fill-rule="nonzero" fill="#FFFFFF">
                <path d="M37.54662,32.79074 L37.54662,18.09474 C37.54662,11.80275 34.07062,7.75474 27.60262,7.75474 C24.03863,7.75474 21.44262,8.85474 19.55062,11.84674 C18.27462,9.11874 14.84262,7.75474 11.98262,7.75474 C8.77063,7.75474 7.01062,8.67874 4.98662,11.05474 L4.89862,11.05474 L4.89862,8.41474 L0.67462,8.41474 L0.67462,32.79074 L5.25062,32.79074 L5.25062,19.19474 C5.25062,15.10275 6.57063,11.93474 11.27862,11.93474 C13.17062,11.93474 14.75462,12.59474 15.81062,14.22274 C16.82262,15.85074 16.82262,17.39074 16.82262,19.23874 L16.82262,32.79074 L21.39862,32.79074 L21.39862,19.19474 C21.39862,15.19074 22.45463,11.93474 27.20662,11.93474 C31.69462,11.93474 32.97062,15.41074 32.97062,19.23874 L32.97062,32.79074 L37.54662,32.79074" id="path3966"></path>
                <polyline id="path3968" points="63.9645 8.41474 59.0365 8.41474 51.6885 27.33474 44.5165 8.41474 39.5885 8.41474 49.3125 32.30674 45.7485 40.93074 50.5005 40.93074 63.9645 8.41474"></polyline>
                <path d="M101.94269,32.79074 L101.94269,18.35874 C101.94269,16.20274 101.59068,13.95874 100.40269,12.11074 C98.51069,9.11874 95.25468,7.75474 91.77869,7.75474 C88.96269,7.75474 86.41068,8.67874 84.65069,11.01074 L84.56269,11.01074 L84.56269,8.41474 L80.29469,8.41474 L80.29469,32.79074 L84.87069,32.79074 L84.87069,19.50274 C84.87069,15.41075 86.80669,11.93474 91.29469,11.93474 C96.13468,11.93474 97.36669,15.41075 97.36669,19.54674 L97.36669,32.79074 L101.94269,32.79074" id="path3970"></path>
                <path d="M132.34875,32.79074 L132.34875,8.41474 L127.77275,8.41474 L127.77275,11.84674 L127.68475,11.84674 C125.88075,9.07474 122.66875,7.75474 119.41275,7.75474 C112.02076,7.75474 106.47675,13.29875 106.47675,20.69074 C106.47675,28.03873 112.10876,33.40674 119.41275,33.40674 C122.75675,33.40674 125.96875,31.95474 127.68475,29.00674 L127.77275,29.00674 L127.77275,32.79074 L132.34875,32.79074 M127.86075,20.64674 C127.86075,25.35474 124.12074,29.22674 119.36875,29.22674 C114.70475,29.22674 111.05275,25.22274 111.05275,20.64674 C111.05275,15.89475 114.57275,11.93474 119.41275,11.93474 C124.38474,11.93474 127.86075,15.76275 127.86075,20.64674" id="path3972"></path>
                <path d="M175.13256,32.79074 L175.13256,18.09474 C175.13256,11.80275 171.65655,7.75474 165.18856,7.75474 C161.62456,7.75474 159.02856,8.85474 157.13656,11.84674 C155.86056,9.11874 152.42856,7.75474 149.56856,7.75474 C146.35656,7.75474 144.59656,8.67874 142.57256,11.05474 L142.48456,11.05474 L142.48456,8.41474 L138.26056,8.41474 L138.26056,32.79074 L142.83656,32.79074 L142.83656,19.19474 C142.83656,15.10275 144.15657,11.93474 148.86456,11.93474 C150.75656,11.93474 152.34056,12.59474 153.39656,14.22274 C154.40856,15.85074 154.40856,17.39074 154.40856,19.23874 L154.40856,32.79074 L158.98456,32.79074 L158.98456,19.19474 C158.98456,15.19074 160.04057,11.93474 164.79256,11.93474 C169.28056,11.93474 170.55656,15.41074 170.55656,19.23874 L170.55656,32.79074 L175.13256,32.79074" id="path3974"></path>
                <path d="M204.6435,20.29474 C204.6435,13.43075 199.14349,7.75474 192.2355,7.75474 C185.10751,7.75474 179.7395,13.51875 179.7395,20.55874 C179.7395,27.37873 185.19551,33.40674 192.1475,33.40674 C197.47149,33.40674 202.0035,30.10674 203.8515,25.13474 L199.2755,25.13474 C197.9555,27.68674 195.1835,29.22674 192.3235,29.22674 C188.3195,29.22674 185.2395,26.36674 184.3155,22.58274 L204.5115,22.58274 C204.5995,21.83474 204.6435,21.04274 204.6435,20.29474 M200.0675,19.06274 L184.3155,19.06274 C184.5795,15.05874 188.2315,11.93474 192.1915,11.93474 C196.15149,11.93474 199.8035,15.05874 200.0675,19.06274" id="path3976"></path>
                <path d="M226.7975,5.59874 L226.7975,0.23074 L222.2215,0.23074 L222.2215,5.59874 L226.7975,5.59874 M226.7975,32.79074 L226.7975,8.41474 L222.2215,8.41474 L222.2215,32.79074 L226.7975,32.79074" id="path3978"></path>
                <path d="M247.44587,25.61874 C247.44587,20.91075 244.10187,18.93074 240.09787,17.69874 C238.42588,17.17074 236.31387,16.68674 236.31387,14.53074 C236.31387,12.90274 237.63388,11.93474 239.17387,11.93474 C241.02187,11.93474 242.07787,13.12274 242.29787,14.88274 L246.87387,14.88274 C246.78587,10.65875 243.57387,7.75474 239.39387,7.75474 C235.38988,7.75474 231.73787,10.61475 231.73787,14.79474 C231.73787,23.41873 242.86987,20.77875 242.86987,25.88274 C242.86987,27.99474 241.37387,29.22674 239.34987,29.22674 C236.62188,29.22674 235.38987,27.29074 235.21387,24.78274 L230.63787,24.78274 C230.63787,28.61074 232.52988,31.55874 236.13787,32.83474 C237.14987,33.18674 238.20587,33.40674 239.26187,33.40674 C243.92587,33.40674 247.44587,30.41474 247.44587,25.61874" id="path3980"></path>
            </g>
            <rect id="rect3773" fill="#FFFFFF" fill-rule="nonzero" x="0" y="161.46717" width="600" height="232.85713"></rect>
            <text id="Charlie-Newman" transform="translate(300.037563, 277.581534) rotate(-3.000000) translate(-300.037563, -277.581534) " font-family="BradleyHandITCTT-Bold, Bradley Hand" font-size="80" font-style="expanded" font-weight="bold" line-spacing="75" letter-spacing="-0.444444448" fill="#4A4A4A">
                <tspan x="127.993119" y="243.220939">Charlie </tspan>
                <tspan x="94.7921312" y="318.220939">Newma</tspan>
                <tspan x="352.729909" y="318.220939" letter-spacing="-0.246913582">n</tspan>
            </text>
        </g>
    </g>
</svg>